Coordinates
version=1
nRows=30
nColumns=38
inDegrees=no

Units are S.I. units (second, meters, Newtons, ...)
If the header above contains a line with 'inDegrees', this indicates whether rotational values are in degrees (yes) or radians (no).

endheader
time	pelvis_tilt	pelvis_list	pelvis_rotation	pelvis_tx	pelvis_ty	pelvis_tz	hip_flexion_r	hip_adduction_r	hip_rotation_r	knee_angle_r	ankle_angle_r	subtalar_angle_r	mtp_angle_r	hip_flexion_l	hip_adduction_l	hip_rotation_l	knee_angle_l	ankle_angle_l	subtalar_angle_l	mtp_angle_l	lumbar_extension	lumbar_bending	lumbar_rotation	arm_flex_r	arm_add_r	arm_rot_r	elbow_flex_r	pro_sup_r	wrist_flex_r	wrist_dev_r	arm_flex_l	arm_add_l	arm_rot_l	elbow_flex_l	pro_sup_l	wrist_flex_l	wrist_dev_l
0	-0.0277577	1.21537	-1.44465	0.600821	1.72691	0.929133	-0.415715	-0.0137379	-0.162736	0.751991	-0.365262	0	0	-0.0313049	-0.0447029	-0.160202	0.335083	-0.310287	0	0	-0.352944	0.0969654	0.218432	-0.156191	-0.735723	-0.0442779	1.5887	0.601749	0	0	0.54683	-0.50922	0.675234	1.11381	0.702884	0	0
0.01	-0.0114814	1.20713	-1.45743	0.60325	1.71725	0.930972	-0.397807	-0.0280733	-0.162173	0.80733	-0.420743	0	0	-0.0505491	-0.0381119	-0.157211	0.338646	-0.306795	0	0	-0.362113	0.0928933	0.215982	-0.159461	-0.733663	-0.0483501	1.59003	0.600574	0	0	0.550794	-0.50946	0.679992	1.11346	0.699208	0	0
0.02	-0.00139527	1.19886	-1.46595	0.605515	1.70769	0.932761	-0.37919	-0.0387826	-0.156827	0.857797	-0.478472	0	0	-0.0694225	-0.0346387	-0.160809	0.343696	-0.300268	0	0	-0.371509	0.090758	0.215357	-0.163043	-0.732984	-0.0526312	1.59287	0.599833	0	0	0.554196	-0.51067	0.684713	1.11445	0.697303	0	0
0.03	0.00556559	1.19178	-1.47262	0.607683	1.69835	0.934373	-0.356977	-0.0482343	-0.150944	0.90929	-0.52313	0	0	-0.0876091	-0.0315732	-0.164856	0.346925	-0.292821	0	0	-0.380011	0.0896992	0.215189	-0.165639	-0.733813	-0.0557282	1.59655	0.598695	0	0	0.556426	-0.512209	0.687856	1.11633	0.694892	0	0
0.04	0.00877991	1.18626	-1.47733	0.609624	1.68909	0.935804	-0.331802	-0.0564107	-0.144857	0.959767	-0.562319	0	0	-0.104651	-0.029387	-0.170115	0.348807	-0.285594	0	0	-0.386749	0.08969	0.216052	-0.167468	-0.735272	-0.0577996	1.60058	0.597267	0	0	0.557461	-0.513999	0.689886	1.11854	0.691855	0	0
0.05	0.00803854	1.18166	-1.47988	0.611256	1.67995	0.937191	-0.30498	-0.0620964	-0.137373	1.00749	-0.590768	0	0	-0.121232	-0.0285078	-0.175577	0.349724	-0.278984	0	0	-0.39197	0.0905581	0.218046	-0.167656	-0.737152	-0.0578002	1.60366	0.595749	0	0	0.557973	-0.515378	0.691258	1.11944	0.68946	0	0
0.06	0.00448992	1.17769	-1.48102	0.612624	1.67091	0.938648	-0.2772	-0.0656412	-0.129935	1.05185	-0.613403	0	0	-0.138074	-0.0286622	-0.181037	0.349077	-0.271971	0	0	-0.396418	0.0919955	0.220923	-0.16681	-0.739165	-0.0564916	1.60616	0.593873	0	0	0.558031	-0.516623	0.692212	1.11955	0.687262	0	0
0.07	-0.000562048	1.17405	-1.48124	0.613813	1.66203	0.94027	-0.248826	-0.0678115	-0.123822	1.09366	-0.621809	0	0	-0.15536	-0.0296068	-0.186563	0.346717	-0.265405	0	0	-0.400591	0.0937652	0.224	-0.164736	-0.741195	-0.0538854	1.60771	0.59168	0	0	0.557486	-0.517457	0.692159	1.11878	0.685401	0	0
0.08	-0.00696939	1.17061	-1.47982	0.614948	1.65333	0.942067	-0.220547	-0.0689684	-0.119973	1.13204	-0.608496	0	0	-0.172973	-0.0315476	-0.190929	0.343176	-0.259152	0	0	-0.40457	0.0962978	0.226836	-0.161846	-0.743215	-0.0505676	1.60825	0.589058	0	0	0.556054	-0.517131	0.690034	1.11687	0.682992	0	0
0.09	-0.0150224	1.16785	-1.47617	0.616075	1.64472	0.943905	-0.192262	-0.069121	-0.118067	1.16719	-0.572049	0	0	-0.190026	-0.034339	-0.194764	0.338812	-0.25346	0	0	-0.407528	0.099656	0.229248	-0.158451	-0.745602	-0.0461555	1.60778	0.586161	0	0	0.554119	-0.516032	0.687039	1.1143	0.681634	0	0
0.1	-0.0255159	1.16582	-1.46943	0.617162	1.63615	0.945731	-0.164157	-0.0669489	-0.115971	1.19733	-0.525347	0	0	-0.206219	-0.0383193	-0.197866	0.334178	-0.249255	0	0	-0.409352	0.104176	0.231214	-0.154658	-0.747825	-0.0411671	1.60636	0.584143	0	0	0.551875	-0.514419	0.683627	1.11147	0.682341	0	0
0.11	-0.0376383	1.16383	-1.46036	0.618145	1.6276	0.947558	-0.13685	-0.0626755	-0.113801	1.22111	-0.490097	0	0	-0.222487	-0.0433429	-0.200826	0.328583	-0.246448	0	0	-0.410821	0.109195	0.232944	-0.151127	-0.749214	-0.0366792	1.60429	0.583247	0	0	0.550182	-0.513153	0.681502	1.10918	0.683791	0	0
0.12	-0.0474911	1.16224	-1.45136	0.619359	1.61916	0.94934	-0.110073	-0.0589775	-0.113547	1.23866	-0.463522	0	0	-0.237982	-0.0472787	-0.201929	0.322158	-0.245225	0	0	-0.412418	0.113908	0.232696	-0.148159	-0.750525	-0.0332084	1.60283	0.582177	0	0	0.548534	-0.512591	0.679419	1.10847	0.683729	0	0
0.13	-0.0551465	1.16077	-1.44225	0.620978	1.61068	0.950993	-0.0847629	-0.0564954	-0.11631	1.24965	-0.439863	0	0	-0.25361	-0.0499462	-0.201307	0.314242	-0.24372	0	0	-0.413282	0.118959	0.230471	-0.14585	-0.752521	-0.0300377	1.60128	0.580628	0	0	0.54704	-0.511912	0.677997	1.10748	0.684753	0	0
0.14	-0.0628383	1.15959	-1.43203	0.622624	1.60221	0.952479	-0.0605358	-0.0533392	-0.120153	1.25415	-0.419467	0	0	-0.269145	-0.0527195	-0.200345	0.305348	-0.241572	0	0	-0.413701	0.124292	0.227611	-0.144212	-0.754492	-0.0275858	1.59987	0.578968	0	0	0.545886	-0.511196	0.676873	1.10681	0.68563	0	0
0.15	-0.0703892	1.15857	-1.42097	0.624192	1.59383	0.953805	-0.0375465	-0.0493138	-0.124775	1.25278	-0.401095	0	0	-0.284315	-0.0560398	-0.199436	0.296542	-0.239654	0	0	-0.413871	0.129552	0.224035	-0.142664	-0.755644	-0.0258817	1.59852	0.577	0	0	0.54549	-0.510652	0.676391	1.10636	0.68548	0	0
0.16	-0.0771653	1.15847	-1.40969	0.625775	1.58551	0.954918	-0.0149943	-0.0452724	-0.129989	1.24666	-0.382448	0	0	-0.298148	-0.0594358	-0.199304	0.288302	-0.238039	0	0	-0.413302	0.134622	0.219577	-0.141522	-0.756119	-0.025086	1.59763	0.575724	0	0	0.545376	-0.510434	0.676223	1.10645	0.685391	0	0
0.17	-0.0830954	1.15903	-1.39843	0.627363	1.57722	0.955838	0.00697373	-0.0417309	-0.135971	1.23658	-0.362413	0	0	-0.31108	-0.0627915	-0.199295	0.280102	-0.236575	0	0	-0.41235	0.139377	0.214418	-0.140992	-0.75606	-0.0254707	1.59734	0.57538	0	0	0.545394	-0.510293	0.675814	1.10697	0.685627	0	0
0.18	-0.0874117	1.15974	-1.38769	0.629006	1.56903	0.95662	0.027717	-0.0393188	-0.143048	1.22258	-0.341854	0	0	-0.323428	-0.0657338	-0.198778	0.272145	-0.235042	0	0	-0.411502	0.143779	0.208058	-0.140378	-0.75581	-0.0263765	1.59729	0.575787	0	0	0.545468	-0.509801	0.674591	1.10735	0.685216	0	0
0.19	-0.0905285	1.16028	-1.37764	0.630618	1.56094	0.957263	0.0469525	-0.0373286	-0.149619	1.20477	-0.322062	0	0	-0.335649	-0.0684967	-0.197666	0.264405	-0.233165	0	0	-0.410903	0.147763	0.201131	-0.139311	-0.755098	-0.027269	1.59697	0.576519	0	0	0.545837	-0.508957	0.673015	1.10742	0.683752	0	0
0.2	-0.0948896	1.1633	-1.36566	0.632456	1.55267	0.957525	0.0676355	-0.036091	-0.156234	1.18488	-0.303306	0	0	-0.344812	-0.0713597	-0.19525	0.257563	-0.230257	0	0	-0.406962	0.152511	0.193378	-0.138992	-0.754468	-0.0282591	1.59643	0.577717	0	0	0.545421	-0.507752	0.671461	1.10681	0.683891	0	0
0.21	-0.0986081	1.15866	-1.35513	0.633808	1.54483	0.958443	0.0775019	-0.0316663	-0.160025	1.15801	-0.28609	0	0	-0.363324	-0.076095	-0.194346	0.248297	-0.229121	0	0	-0.411944	0.157431	0.187401	-0.136622	-0.754296	-0.0287029	1.596	0.578605	0	0	0.548336	-0.507305	0.671881	1.10582	0.685828	0	0
0.22	-0.0975745	1.16398	-1.34943	0.63539	1.53657	0.958196	0.0982134	-0.0334116	-0.162523	1.13419	-0.269446	0	0	-0.371018	-0.0758838	-0.189976	0.241612	-0.224546	0	0	-0.406375	0.158844	0.180124	-0.136962	-0.753708	-0.0299679	1.5965	0.578911	0	0	0.548521	-0.506838	0.671073	1.10569	0.687727	0	0
0.23	-0.0992393	1.16628	-1.34169	0.636672	1.52845	0.958278	0.112993	-0.0317584	-0.163015	1.10265	-0.257612	0	0	-0.381499	-0.0781611	-0.188188	0.234303	-0.220804	0	0	-0.404378	0.161313	0.174071	-0.136089	-0.753076	-0.0306429	1.59627	0.579834	0	0	0.549414	-0.506022	0.670096	1.1055	0.688905	0	0
0.24	-0.100002	1.16824	-1.33533	0.63788	1.52043	0.958297	0.125256	-0.0302217	-0.161867	1.06631	-0.248412	0	0	-0.392392	-0.0798009	-0.185857	0.226906	-0.217696	0	0	-0.402903	0.163323	0.168438	-0.134546	-0.752609	-0.0308398	1.59543	0.581554	0	0	0.550864	-0.505303	0.669771	1.10492	0.690842	0	0
0.25	-0.100709	1.17041	-1.33011	0.638915	1.51242	0.958222	0.135691	-0.0283755	-0.158803	1.0256	-0.241816	0	0	-0.403486	-0.0810752	-0.18324	0.219206	-0.214685	0	0	-0.401294	0.164737	0.16369	-0.13263	-0.751944	-0.0307487	1.59405	0.583253	0	0	0.551939	-0.504143	0.66856	1.10405	0.691551	0	0
0.26	-0.1019	1.1737	-1.32565	0.639804	1.50431	0.958017	0.145394	-0.0264059	-0.154226	0.981808	-0.237359	0	0	-0.413358	-0.0819447	-0.181045	0.212012	-0.211375	0	0	-0.398916	0.165878	0.160258	-0.131696	-0.751079	-0.0316651	1.59327	0.584766	0	0	0.552159	-0.502802	0.666394	1.10341	0.692904	0	0
0.27	-0.102753	1.17771	-1.32258	0.64054	1.4962	0.957688	0.154136	-0.0246706	-0.148891	0.935331	-0.234542	0	0	-0.421776	-0.0822624	-0.179367	0.20638	-0.207068	0	0	-0.395886	0.166549	0.157831	-0.130961	-0.750079	-0.0328683	1.59247	0.586373	0	0	0.551902	-0.500923	0.663426	1.10202	0.695418	0	0
0.28	-0.104146	1.18306	-1.32008	0.641099	1.48802	0.957149	0.162724	-0.02327	-0.143438	0.88664	-0.232204	0	0	-0.428347	-0.0821979	-0.177566	0.201908	-0.202922	0	0	-0.391926	0.166497	0.156233	-0.130494	-0.748713	-0.0344921	1.59198	0.588127	0	0	0.550556	-0.499343	0.659178	1.10194	0.697646	0	0
0.29	-0.105561	1.18979	-1.31865	0.641511	1.47971	0.956338	0.171568	-0.0225082	-0.13847	0.836579	-0.228394	0	0	-0.433093	-0.0815404	-0.176311	0.198628	-0.198681	0	0	-0.386639	0.16579	0.155549	-0.13046	-0.747472	-0.0362064	1.59185	0.590365	0	0	0.548755	-0.498106	0.654916	1.10228	0.701373	0	0
